/* XPM */
static char *eea851d0f40d40c9f988366486f82f539v0poLhp2TMLhs7l[] = {
/* columns rows colors chars-per-pixel */
"32 32 8 1 ",
"  c None",
". c #FF5252",
"X c #FFD600",
"o c #42A5F5",
"O c #FFBFAD",
"+ c #FFD2C7",
"@ c gray96",
"# c white",
/* pixels */
"                                ",
"    XXX   XXXXXXXXX             ",
"    XXX   XXXXXXXXX             ",
"    XXXXXX++++++++++++OOO       ",
"    XXXXXX++++++++++++OOO       ",
"    XXXXXX++++++++++++OOO       ",
"       +++++++++++++++OOO       ",
"       +++++++++++++++OOO       ",
"    +++ooo++++++ooo++++++OOO    ",
"    +++ooo++++++ooo++++++OOO    ",
"    +++++++++++++++++++++OOO    ",
"    +++++++++++++++++++++OOO    ",
"    +++++++++++++++++++++OOO    ",
"    ++++++...++++++++++++OOO    ",
"    ++++++...++++++++++++OOO    ",
"       ++++++++++++OOOOOO       ",
"       ++++++++++++OOOOOO       ",
"             OOOOOO             ",
"             OOOOOO             ",
"          ++++++++++++          ",
"          ++++++++++++          ",
"          ++++++++++++          ",
"          ++++++++++++          ",
"          ++++++++++++          ",
" +++      +++######+++      +++ ",
" +++      +++######+++      +++ ",
" ++++++++++++@@@@@@++++++++++++ ",
" ++++++++++++@@@@@@++++++++++++ ",
" ++++++++++++@@@@@@++++++++++++ ",
"          +++      +++          ",
"          +++      +++          ",
"                                "
};
