/* XPM */
static char *_4f2473d9053464ec699f93e96fa4ed0wOxgksx6ZEvHeKHI[] = {
/* columns rows colors chars-per-pixel */
"32 32 3 1 ",
"  c None",
". c gray9",
"X c gray22",
/* pixels */
"                                ",
"                                ",
"                                ",
"                                ",
"                                ",
"                                ",
"                                ",
"                                ",
"                                ",
"                                ",
"                                ",
"                                ",
"                                ",
"                                ",
"                                ",
"                                ",
"                                ",
"                                ",
"                                ",
"                                ",
"                                ",
"       XXXXXXXXXXXXXXXXXX       ",
"   XXXX..................XXX    ",
"   XXXX..................XXX    ",
"  X.........................XX  ",
" X............................X ",
" X............................X ",
"  ............................  ",
"   .........................    ",
"   .........................    ",
"       ..................       ",
"                                "
};
