/* XPM */
static char *_b5c493770d0458ae330b573f9a5cca8zN4HCE8ZPWgEqM3T[] = {
/* columns rows colors chars-per-pixel */
"32 32 2 1 ",
"  c #4CAF50",
". c #8BC34A",
/* pixels */
"                                ",
" .............................. ",
" .............. ... ... ...   . ",
" . . .... ................... . ",
" .....  ....  ...  ... .. ... . ",
" ... ....................  .... ",
" ...... .. . . .... . ....... . ",
" . .... .................. .... ",
" ...... .. .  ... ...... . .... ",
" .... ............... ...... .. ",
" .......... ..  .. ..... ...... ",
" ..... ........... .. .... .... ",
"  . ..... ... ........... ..... ",
" .......... ....... ........ .. ",
" . .... ...... .. ......... ... ",
" . . .... . ........ . .. ..... ",
" ..... ....... . .......  .. .. ",
" .. ..... . .. ................ ",
" .. .... ...  ..... .. ........ ",
" .......  .. ... .... .. .... . ",
" .... ..... ...... ...... ..... ",
" ........ . .... ..... .. .. .. ",
" . ..... .. ................ .. ",
" .... ....... ...... .  ....... ",
" ...... ....... .........  ...  ",
" . . .....  ........ .......... ",
" .. .... ....... .....  .... .. ",
" ...  ......... ..  ...... .... ",
" .......  ........... .. ... .. ",
" .. ...  .... ... ........... . ",
" ....................  ... .... ",
"                                "
};
