/* XPM */
static char *_22a33bf424545c8d8cfb97b80a571b8MD9EuQjPYrgJxMbL[] = {
/* columns rows colors chars-per-pixel */
"32 32 8 1 ",
"  c None",
". c black",
"X c #D32F2F",
"o c #E53935",
"O c #FF9800",
"+ c #FFC107",
"@ c #FFEB3B",
"# c white",
/* pixels */
"                                ",
"                                ",
"                                ",
"                                ",
"                                ",
"              ............      ",
"              ............      ",
"              ............      ",
"              ............      ",
"              ............      ",
"             ..............     ",
"               .+@@@@@@@.       ",
"              .+@@@@@@@@.       ",
"              .+@@@@@@@@@.      ",
"              .@@..@@@@@..      ",
"              .@@..ooooo..      ",
"            ..#@@@@+XXXXO.      ",
"           .@@@#@@@@+++O.       ",
"         ..@@@@@#+..++..        ",
"      ...@@@@@@@@#......O.      ",
"     .O++@@@@@@+@@..++..+.      ",
"     .++@...@@O@@@+++++++.      ",
"      .@@@@@..@@@++++++++.      ",
"       .@@@@@@@++++++++O.       ",
"        ....@@+++++OOO..        ",
"           ...........          ",
"           ...    ....          ",
"                                ",
"                                ",
"                                ",
"                                ",
"                                "
};
