/* XPM */
static char *_b2220c2b4f248779a8f9c7e4646dc8bgq6rQuNp82OgaU6F[] = {
/* columns rows colors chars-per-pixel */
"32 32 2 1 ",
"  c #D32F2F",
". c #FF5722",
/* pixels */
"                                ",
" .... .... ... .. ... ..... ... ",
" .... .... ... .. ... ..... ... ",
"                                ",
" . .... ..... .... ..... .... . ",
" . .... ..... .... ..... .... . ",
"                                ",
" .... ...... ...... ...... .... ",
" .... ...... ...... ...... .... ",
"                                ",
" . .... ..... .... ..... .... . ",
" . .... ..... .... ..... .... . ",
"                                ",
" ... ..... ... .. ... .... .... ",
" ... ..... ... .. ... .... .... ",
" ... ..... ... .. ... .... .... ",
"                                ",
" .... .... ... .. ... ..... ... ",
" .... .... ... .. ... ..... ... ",
"                                ",
" . .... ..... .... ..... .... . ",
" . .... ..... .... ..... .... . ",
"                                ",
" .... ...... ...... ...... .... ",
" .... ...... ...... ...... .... ",
"                                ",
" . .... ..... .... ..... .... . ",
" . .... ..... .... ..... .... . ",
"                                ",
" ... ..... ... .. ... .... .... ",
" ... ..... ... .. ... .... .... ",
"                                "
};
